# xmcd
#
# Track frame offsets:
#	150
#	15700
#	28973
#	44013
#	60963
#	71995
#	85758
#	97558
#	107358
#
# Disc length: 1566 seconds
#
# Revision: 1
# Processed by: cddbd v1.5.2PL0 Copyright (c) Steve Scherf et al.
# Submitted via: audiograbber 1.83.01
#
DISCID=69061c09
DTITLE=Conway Twitty - More Gold
DYEAR=1994
DGENRE=Country
TTITLE0=Touch The Hand
TTITLE1=After All The Good Is Gone
TTITLE2=(Lost Our Love) On Our Last Date
TTITLE3=Don't Cry Joni
TTITLE4=As Soon As I Hang Up The Phone
TTITLE5=Baby's Gone
TTITLE6=I'm Not Through Loving You Yet
TTITLE7=I'll Try
TTITLE8=(I Can't Beleive) She Gives It All To Me
EXTD=
EXTT0=
EXTT1=
EXTT2=
EXTT3=
EXTT4=
EXTT5=
EXTT6=
EXTT7=
EXTT8=
PLAYORDER=
